<?xml version="1.0" standalone="no"?>
<!DOCTYPE svg PUBLIC "-//W3C//DTD SVG 20010904//EN"
 "http://www.w3.org/TR/2001/REC-SVG-20010904/DTD/svg10.dtd">
<svg version="1.0" xmlns="http://www.w3.org/2000/svg"
 width="225.000000pt" height="225.000000pt" viewBox="0 0 225.000000 225.000000"
 preserveAspectRatio="xMidYMid meet">

<g transform="translate(0.000000,225.000000) scale(0.100000,-0.100000)"
fill="#000000" stroke="none">
<path d="M975 2239 c-93 -12 -230 -52 -320 -93 -227 -105 -433 -307 -540 -531
-268 -557 -41 -1221 510 -1495 557 -276 1230 -50 1509 508 67 133 116 343 116
497 0 421 -246 817 -625 1005 -204 101 -422 137 -650 109z m236 -139 c236 -24
424 -110 594 -271 299 -285 385 -737 211 -1114 -199 -430 -689 -661 -1141
-538 -290 79 -537 293 -650 562 -173 410 -55 877 290 1150 159 127 315 187
550 215 17 1 33 4 36 5 4 0 53 -4 110 -9z"/>
<path d="M714 1685 c-18 -12 -19 -29 -19 -223 0 -197 1 -212 21 -239 11 -15
34 -35 52 -43 l32 -15 -1 -100 c0 -55 -4 -181 -8 -280 -9 -216 -4 -235 67
-235 20 0 40 8 53 21 22 22 22 24 15 308 l-7 286 32 15 c41 19 68 55 79 106
11 44 13 353 4 378 -8 21 -60 21 -68 0 -3 -9 -6 -69 -6 -134 0 -122 -8 -148
-43 -134 -14 5 -17 29 -19 147 l-3 142 -30 0 -30 0 -3 -137 c-2 -105 -6 -139
-17 -148 -12 -10 -18 -10 -30 0 -12 10 -15 39 -15 146 0 120 -2 134 -19 143
-13 7 -24 6 -37 -4z"/>
<path d="M1261 1655 c-58 -53 -84 -121 -89 -237 -5 -124 13 -190 74 -257 l43
-48 3 -260 c3 -240 5 -263 22 -282 36 -39 100 -23 119 30 3 9 1 128 -4 265 -9
228 -8 250 7 259 45 27 79 63 97 103 55 126 31 319 -51 405 -39 42 -75 57
-131 57 -44 0 -56 -5 -90 -35z"/>
</g>
</svg>
